<svg xmlns="http://www.w3.org/2000/svg" width="1000" height="1000" viewBox="0 0 1000 1000">
  <defs>
    <!-- TadilatBodrum.com logo markası (ev + boya rulosu + dalgalar) -->
    <g id="mark" fill="none" stroke="#112F5B" stroke-opacity="0.06" stroke-width="6"
       stroke-linecap="round" stroke-linejoin="round">
      <path d="M-30 -4 L0 -28 L30 -4"/>
      <path d="M-22 -10 L-22 10"/>
      <path d="M-6 10 L-6 -2 Q-6 -12 0 -12 Q6 -12 6 -2 L6 10"/>
      <path d="M-40 20 q6 -6 12 0 t12 0 t12 0"/>
      <path d="M-40 31 q6 -6 12 0 t12 0 t12 0"/>
      <path d="M-40 42 q6 -6 12 0 t12 0 t12 0"/>
      <rect x="14" y="-5" width="28" height="14" rx="4" fill="#112F5B" fill-opacity="0.06" stroke="none"/>
      <path d="M42 2 h7 v8 M45 10 v11"/>
      <path d="M45 21 l-4 8 M45 21 l4 8"/>
    </g>
  </defs>
  <g>
    <use href="#mark" transform="translate(110 140) rotate(-16) scale(1.05)"/>
    <use href="#mark" transform="translate(370 95)  rotate(11)  scale(0.85)"/>
    <use href="#mark" transform="translate(640 175) rotate(-7)  scale(1.15)"/>
    <use href="#mark" transform="translate(880 120) rotate(23)  scale(0.9)"/>
    <use href="#mark" transform="translate(200 410) rotate(13)  scale(1.0)"/>
    <use href="#mark" transform="translate(500 380) rotate(-21) scale(0.95)"/>
    <use href="#mark" transform="translate(790 450) rotate(8)   scale(1.2)"/>
    <use href="#mark" transform="translate(120 700) rotate(-11) scale(1.05)"/>
    <use href="#mark" transform="translate(430 760) rotate(19)  scale(0.85)"/>
    <use href="#mark" transform="translate(720 720) rotate(-14) scale(1.1)"/>
    <use href="#mark" transform="translate(930 800) rotate(6)   scale(0.9)"/>
    <use href="#mark" transform="translate(300 940) rotate(-9)  scale(1.0)"/>
    <use href="#mark" transform="translate(620 950) rotate(15)  scale(0.95)"/>
  </g>
</svg>
